<?xml version="1.0" encoding="utf-8"?>
<!-- Generator: Adobe Illustrator 14.0.0, SVG Export Plug-In . SVG Version: 6.00 Build 43363)  -->
<!DOCTYPE svg PUBLIC "-//W3C//DTD SVG 1.1//EN" "http://www.w3.org/Graphics/SVG/1.1/DTD/svg11.dtd">
<svg version="1.1" xmlns="http://www.w3.org/2000/svg" xmlns:xlink="http://www.w3.org/1999/xlink" x="0px" y="0px" width="612px"
	 height="792px" viewBox="0 0 612 792" enable-background="new 0 0 612 792" xml:space="preserve">
<g id="Layer_3">
	<circle stroke="#000000" cx="312" cy="406" r="260.215"/>
</g>
<g id="Layer_1">
	<g>
		<path fill="#FFFFFF" d="M312.618,382.667c19.888,0,27.862,20.543,28.538,21.301c1.605,1.806,9.27,22.021,30.28,22.021
			c24.903,0,32.245,0,32.245,0s36.148,4.267,36.148-25.565c0-22.255,0.341-40.3,0.341-40.3H311.84H183.913
			c0,0,0.804,18.045,0.804,40.3c0,27.442,36.148,25.565,36.148,25.565s10.266,0,35.167,0c17.203,0,26.667-21.331,28.272-23.136
			c0.676-0.758,6.488-20.186,27.851-20.186H312.618z"/>
		<g>
			<path fill="none" d="M368.038,444.5c-28.735,0-38.932-24.101-40.786-26.881c-0.778-1.169-3.244-14.368-15.294-14.368h-0.534
				c-12.05,0-14.516,13.199-15.294,14.368c-1.854,2.78-12.05,26.881-40.786,26.881c-28.735,0-49.127,0-49.127,0
				s-2.818-0.346-6.985-1.456C205.237,474.764,211,503,211,503s4.388,21.266,13.695,33.141
				c19.157,24.442,47.03,48.141,87.295,48.141c39.236,0,73.475-21.107,87.135-48.209c0,0,12.541-23.073,15.208-35.739
				c1.234-5.86,5.894-31.562,10.544-57.487c-4.563,1.268-7.711,1.654-7.711,1.654S396.773,444.5,368.038,444.5z"/>
			<path fill="none" d="M431.826,343c-2.944-11.048-7.828-23.622-15.854-36.649c-20.084-32.604-59.921-56.684-104.973-56.684
				c-43.413,0-85.021,26.837-100.426,53.475c0,0-12.989,16.354-19.509,39.858h120.127H431.826z"/>
			<path fill="none" d="M177.481,353.196c0,0,0.84,21.459,0.84,47.926c0,31.482,37.789,30.4,37.789,30.4s18.476,0,44.508,0
				c17.983,0,27.345-21.571,29.024-23.717c0.706-0.902,6.343-17.022,21.9-17.022h0.483c15.673,0,22.72,16.354,23.426,17.256
				c1.678,2.146,11.276,23.482,27.262,23.482c26.032,0,44.508,0,44.508,0s37.789,3.554,37.789-30.4
				c0-26.466,0.357-47.926,0.357-47.926H311.214H177.481z"/>
			<path fill="#FFFFFF" d="M446.452,343c-2.571-9.889-6.917-21.731-14.119-35.333c-25-47.213-69.635-70.958-119.38-71.6
				c-53.188-0.687-95.287,26.934-117.333,66.542c0,0-12.307,16.771-17.837,40.392h-14.207c0,0,0.927,27.808,0.927,62.105
				c0,16.251,9.366,25.943,19.221,31.646c6.16,34.603,14.416,76.13,17.941,84.915c2.684,6.688,10.654,20.036,15.994,27.685
				C235.474,574.867,268.611,597,311.999,597c42.304,0,72.017-15.482,94.346-44.171c0,0,15.405-19.256,19.322-35.829
				c1.482-6.274,7.946-45.03,13.696-80.079c9.962-5.681,19.515-15.403,19.515-31.815c0-34.297,0.393-62.105,0.393-62.105H446.452z
				 M210.574,303.142c15.405-26.637,57.013-53.475,100.426-53.475c45.052,0,84.889,24.08,104.973,56.684
				c8.025,13.027,12.909,25.601,15.854,36.649H311.192H191.065C197.585,319.496,210.574,303.142,210.574,303.142z M414.333,500.333
				c-2.667,12.666-15.208,35.739-15.208,35.739c-13.66,27.102-47.898,48.209-87.135,48.209c-40.265,0-68.138-23.698-87.295-48.141
				C215.388,524.266,211,503,211,503s-5.763-28.236-11.769-59.956c4.167,1.11,6.985,1.456,6.985,1.456s20.393,0,49.127,0
				c28.735,0,38.932-24.101,40.786-26.881c0.779-1.169,3.244-14.368,15.294-14.368h0.534c12.05,0,14.516,13.199,15.294,14.368
				c1.854,2.78,12.051,26.881,40.786,26.881s49.128,0,49.128,0s3.148-0.387,7.711-1.654
				C420.227,468.771,415.567,494.473,414.333,500.333z M445.01,401.122c0,33.954-37.789,30.4-37.789,30.4s-18.476,0-44.508,0
				c-15.985,0-25.584-21.337-27.262-23.482c-0.706-0.902-7.753-17.256-23.426-17.256h-0.483c-15.558,0-21.195,16.12-21.9,17.022
				c-1.679,2.146-11.041,23.717-29.024,23.717c-26.032,0-44.508,0-44.508,0s-37.789,1.082-37.789-30.4
				c0-26.466-0.84-47.926-0.84-47.926h133.733h134.153C445.367,353.196,445.01,374.656,445.01,401.122z"/>
		</g>
		<path fill="#FFFFFF" d="M132.5,359l24.75,131.5c0,0,24.5-6.5,21-29s-15.5-84.25-15.5-84.25S157.75,354.25,132.5,359z"/>
		<path fill="#FFFFFF" d="M124,360l24.75,132l-8,1.75c0,0-0.5-5.5-5.25-6.5s-18-6-18-6l-18-99l14.25-12.75c0,0,3.5-2.25,2.5-7.5
			l7-1.25"/>
		<path fill="#FFFFFF" d="M446.75,458.75c-3.75,27,20.5,31.25,20.5,31.25l24.25-132.5c0,0-25-6.25-30,20
			S446.75,458.75,446.75,458.75z"/>
		<path fill="#FFFFFF" d="M525.25,380.25L507.5,480c0,0-10.75,3-17,5.75s-6,7.75-6,7.75l-8.75-2l24.5-133l8.5,2c0,0-2,3.25,2.75,7.5
			S525.25,380.25,525.25,380.25z"/>
		<path fill="#FFFFFF" d="M509.75,352.5l1.5-7l-23.75-4.25c0,0-20.596-2.769-33.25-30.5c-11.75-25.75-36-51.25-45.5-57.75
			s-28-22.25-61-29.5s-61.919-3.321-83,3.25C245.5,232.75,225,243,204,262.5c-17.253,16.021-23.721,29.651-33,46.5
			c-9.5,17.25-9.75,24.25-35.25,33.375l-22.5,4.375L114,354l26-5c0,0,23-3.333,36-33s36.043-51.744,42.667-56.667
			c15.583-11.583,47.154-29.67,76.833-31.083c26.25-1.25,44.25-3.75,89.25,17.75c28.415,13.576,46.75,40,61.917,66.667
			c2.579,4.535,10.289,31.623,42,36.333C492.398,349.554,509.75,352.5,509.75,352.5z"/>
	</g>
</g>
</svg>
